<svg width="547" height="525" viewBox="0 0 547 525" fill="none" xmlns="http://www.w3.org/2000/svg">
<path d="M182.958 420.44C182.958 422.645 180.422 424.41 177.224 424.41C173.584 424.741 171.048 422.976 171.048 420.44C171.048 418.234 173.584 416.469 176.783 416.469C180.091 416.139 182.958 417.903 182.958 420.44ZM148.661 415.477C147.889 417.683 150.094 420.219 153.403 420.881C156.27 421.984 159.579 420.881 160.24 418.675C160.902 416.469 158.807 413.933 155.498 412.94C152.631 412.168 149.433 413.271 148.661 415.477ZM197.405 413.602C194.207 414.374 192.002 416.469 192.332 419.006C192.663 421.212 195.531 422.645 198.839 421.873C202.037 421.101 204.243 419.006 203.912 416.8C203.581 414.705 200.604 413.271 197.405 413.602ZM269.971 -9C117.01 -9 0 107.127 0 260.089C0 382.392 76.9771 487.05 186.929 523.884C201.045 526.421 206.007 517.709 206.007 510.54C206.007 503.703 205.677 465.986 205.677 442.827C205.677 442.827 128.479 459.369 112.267 409.963C112.267 409.963 99.6953 377.871 81.609 369.599C81.609 369.599 56.3543 352.285 83.3735 352.616C83.3735 352.616 110.834 354.822 125.942 381.069C150.094 423.638 190.568 411.396 206.338 404.118C208.875 386.473 216.043 374.231 223.984 366.953C162.336 360.115 100.136 351.182 100.136 245.091C100.136 214.763 108.518 199.544 126.163 180.134C123.296 172.966 113.922 143.41 129.03 105.253C152.079 98.0842 205.125 135.029 205.125 135.029C227.182 128.853 250.892 125.655 274.383 125.655C297.873 125.655 321.583 128.853 343.64 135.029C343.64 135.029 396.686 97.9739 419.735 105.253C434.843 143.521 425.469 172.966 422.602 180.134C440.247 199.654 451.055 214.873 451.055 245.091C451.055 351.513 386.099 360.005 324.451 366.953C334.597 375.665 343.199 392.207 343.199 418.124C343.199 455.289 342.868 501.277 342.868 510.32C342.868 517.488 347.941 526.2 361.947 523.664C472.229 487.05 547.001 382.392 547.001 260.089C547.001 107.127 422.933 -9 269.971 -9ZM107.194 371.364C105.761 372.467 106.092 375.003 107.966 377.099C109.731 378.863 112.267 379.635 113.701 378.201C115.135 377.099 114.804 374.562 112.929 372.467C111.165 370.702 108.628 369.93 107.194 371.364ZM95.284 362.431C94.512 363.865 95.6148 365.629 97.8205 366.732C99.585 367.835 101.791 367.504 102.563 365.96C103.335 364.526 102.232 362.762 100.026 361.659C97.8205 360.997 96.056 361.328 95.284 362.431ZM131.015 401.692C129.251 403.125 129.913 406.434 132.449 408.529C134.986 411.066 138.184 411.396 139.617 409.632C141.051 408.198 140.389 404.89 138.184 402.794C135.758 400.258 132.449 399.927 131.015 401.692ZM118.443 385.48C116.679 386.583 116.679 389.45 118.443 391.987C120.208 394.523 123.185 395.626 124.619 394.523C126.384 393.09 126.384 390.222 124.619 387.686C123.075 385.149 120.208 384.046 118.443 385.48Z" fill="black"/>
</svg>
